<svg xmlns="http://www.w3.org/2000/svg" xmlns:xlink="http://www.w3.org/1999/xlink" viewBox="0 0 100 100"><defs><style>.cls-1{isolation:isolate;}.cls-2{font-size:6.55px;fill:#6e6f71;font-family:EurostileLTStd-Ex2, Eurostile LT Std;letter-spacing:0em;}.cls-3{fill:#afcc37;}.cls-4{fill:none;}.cls-5,.cls-8{fill:#4dc0af;}.cls-12,.cls-6{fill:#f9bb19;}.cls-11,.cls-13,.cls-14,.cls-15,.cls-16,.cls-17,.cls-18,.cls-6,.cls-8,.cls-9{mix-blend-mode:multiply;}.cls-7,.cls-9{fill:#f38220;}.cls-10{fill:url(#New_Gradient_Swatch_3);}.cls-11,.cls-21{fill:#d7df29;}.cls-13{fill:#f15b2c;}.cls-14{fill:url(#New_Gradient_Swatch_2);}.cls-15{fill:url(#New_Gradient_Swatch_2-2);}.cls-16{fill:url(#New_Gradient_Swatch_2-3);}.cls-17{fill:url(#New_Gradient_Swatch_2-4);}.cls-18{fill:url(#New_Gradient_Swatch_2-5);}.cls-19{fill:url(#New_Gradient_Swatch_6);}.cls-20{fill:url(#New_Gradient_Swatch_5);}</style><linearGradient id="New_Gradient_Swatch_3" x1="32.54" y1="70.97" x2="39.39" y2="60.89" gradientUnits="userSpaceOnUse"><stop offset="0" stop-color="#f38220"/><stop offset="1" stop-color="#f9bb19"/></linearGradient><linearGradient id="New_Gradient_Swatch_2" x1="39.01" y1="60.18" x2="63.01" y2="60.18" gradientUnits="userSpaceOnUse"><stop offset="0.01" stop-color="#4dc0af"/><stop offset="1" stop-color="#fff"/></linearGradient><linearGradient id="New_Gradient_Swatch_2-2" x1="39.01" y1="56.54" x2="63" y2="56.54" xlink:href="#New_Gradient_Swatch_2"/><linearGradient id="New_Gradient_Swatch_2-3" x1="39.01" y1="58.42" x2="63" y2="58.42" xlink:href="#New_Gradient_Swatch_2"/><linearGradient id="New_Gradient_Swatch_2-4" x1="39.01" y1="60.29" x2="63" y2="60.29" xlink:href="#New_Gradient_Swatch_2"/><linearGradient id="New_Gradient_Swatch_2-5" x1="39.01" y1="57.15" x2="63" y2="57.15" xlink:href="#New_Gradient_Swatch_2"/><linearGradient id="New_Gradient_Swatch_6" x1="69.62" y1="55.59" x2="77.35" y2="51.82" gradientUnits="userSpaceOnUse"><stop offset="0" stop-color="#f9bb19"/><stop offset="1" stop-color="#fff"/></linearGradient><linearGradient id="New_Gradient_Swatch_5" x1="76.39" y1="68.38" x2="86.53" y2="68.38" gradientUnits="userSpaceOnUse"><stop offset="0" stop-color="#f38220"/><stop offset="1" stop-color="#fff"/></linearGradient></defs><title>YSN_Logo_2015_100x100</title><g class="cls-1"><g id="Layer_1" data-name="Layer 1"><text class="cls-2" transform="translate(56.12 29.88)">your <tspan x="0" y="6.25">success </tspan><tspan x="0" y="12.49">now</tspan></text><g id="_Group_" data-name="&lt;Group&gt;"><g id="_Group_2" data-name="&lt;Group&gt;"><path id="_Compound_Path_" data-name="&lt;Compound Path&gt;" class="cls-3" d="M26.56,37.08a2.94,2.94,0,0,0,1.3,2.39,5.1,5.1,0,0,0,2.7.68,10.61,10.61,0,0,0,1.25-.08,5.46,5.46,0,0,0,1.32-.33,2.46,2.46,0,0,0,1-.7,1.69,1.69,0,0,0,.36-1.21,1.71,1.71,0,0,0-.55-1.23,3.79,3.79,0,0,0-1.31-.77,12.59,12.59,0,0,0-1.83-.5l-2.09-.44a19.8,19.8,0,0,1-2.1-.58,6.71,6.71,0,0,1-1.81-.92,4.24,4.24,0,0,1-1.28-1.49A4.72,4.72,0,0,1,23,29.66a4,4,0,0,1,.7-2.41,5.36,5.36,0,0,1,1.78-1.57,7.74,7.74,0,0,1,2.39-.84,14,14,0,0,1,2.51-.24A11.44,11.44,0,0,1,33,24.9a7.06,7.06,0,0,1,2.26.94A5.51,5.51,0,0,1,37,27.53,5.87,5.87,0,0,1,37.8,30H33.73a2.43,2.43,0,0,0-1.28-1.88,5.31,5.31,0,0,0-2.31-.48,8.28,8.28,0,0,0-1,.07,4.49,4.49,0,0,0-1.06.26,2.25,2.25,0,0,0-.84.55,1.31,1.31,0,0,0-.34.94,1.49,1.49,0,0,0,.5,1.16,4,4,0,0,0,1.3.73,12.53,12.53,0,0,0,1.83.49l2.12.45q1.06.24,2.09.58a6.75,6.75,0,0,1,1.83.92,4.49,4.49,0,0,1,1.3,1.47,4.41,4.41,0,0,1,.5,2.19,4.74,4.74,0,0,1-.72,2.66,5.68,5.68,0,0,1-1.87,1.78,8.54,8.54,0,0,1-2.55,1,13,13,0,0,1-2.77.31,12.14,12.14,0,0,1-3.1-.38,7.23,7.23,0,0,1-2.46-1.14,5.53,5.53,0,0,1-1.64-1.91,6.09,6.09,0,0,1-.63-2.72Z"/><g id="_Group_3" data-name="&lt;Group&gt;"><path id="_Path_" data-name="&lt;Path&gt;" class="cls-3" d="M50.07,26.15a6.61,6.61,0,0,0-4.58-1.5,6.2,6.2,0,0,0-3.18.84A6.55,6.55,0,0,0,40,27.79l-.07-.07v-2.6H36.23v1a6,6,0,0,1,1,1.21A6.21,6.21,0,0,1,38.13,30l0,.37H36.23v2.82a6.43,6.43,0,0,1,.58.37,4.86,4.86,0,0,1,1.4,1.58,4.77,4.77,0,0,1,.54,2.35A5.1,5.1,0,0,1,38,40.34a6,6,0,0,1-1.74,1.73v.71h3.89V32.36a5.31,5.31,0,0,1,.31-1.81,4.64,4.64,0,0,1,.86-1.49,3.86,3.86,0,0,1,1.33-1,4.23,4.23,0,0,1,1.78-.36,3.23,3.23,0,0,1,2.56.94,4.8,4.8,0,0,1,.89,3v11.1h3.89V30.66A5.76,5.76,0,0,0,50.07,26.15Z"/><path id="_Path_2" data-name="&lt;Path&gt;" class="cls-3" d="M22.71,29.66a4.37,4.37,0,0,1,.76-2.6,5.73,5.73,0,0,1,1.88-1.67c.2-.11.41-.21.62-.31H22.54L18.07,38.27H18L13.39,25.09H9.12l6.7,17.59L15.37,44a7.58,7.58,0,0,1-.38,1,3,3,0,0,1-.49.77,1.86,1.86,0,0,1-.73.5,3.19,3.19,0,0,1-1.13.17,5,5,0,0,1-.92-.08l-.92-.15v3.28a17.78,17.78,0,0,0,2.7.2,5.61,5.61,0,0,0,2.53-.5,4.82,4.82,0,0,0,1.64-1.33A8.12,8.12,0,0,0,18.78,46q.46-1.09.93-2.29l4-10.87a4.73,4.73,0,0,1-.51-.78A5.11,5.11,0,0,1,22.71,29.66Z"/></g></g></g><g id="_Group_4" data-name="&lt;Group&gt;"><path id="_Path_3" data-name="&lt;Path&gt;" class="cls-4" d="M7.6,74.33a.15.15,0,0,1-.12,0H8c0-.51.1-.34.15-.53C7.93,74,7.76,74.18,7.6,74.33Z"/><path id="_Path_4" data-name="&lt;Path&gt;" class="cls-5" d="M20.51,61c.81-1,1.24-2.63,2.36-3.36,0,0-1.79,1.22-3.37,2.45a36.91,36.91,0,0,0-5,4.91s4.07-2.48,4.88-3Z"/><path id="_Path_5" data-name="&lt;Path&gt;" class="cls-6" d="M27.41,60.79a39,39,0,0,0-4.69,2.76,10.43,10.43,0,0,0-2.65,2.69,1.19,1.19,0,0,0-.18.38c0,.2.24,0,.37,0a60.06,60.06,0,0,1,6-3.49c.51-.29.77-.6.8-.93C27,61.4,27.14,60.93,27.41,60.79Z"/><path id="_Path_6" data-name="&lt;Path&gt;" class="cls-7" d="M27.58,59.6c2.23-1,6.86-2.7,6.91-2.73s.48-.26-.06-.43a13.52,13.52,0,0,0-5.06.77c-1.23.47-2.67,1-2.87,1.13s-.1.47.08,1.19C26.7,59.79,27,59.81,27.58,59.6Z"/><path id="_Path_7" data-name="&lt;Path&gt;" class="cls-8" d="M17.75,69.58c.11-.31.11-.18.08-.43-.16-.05-.16,0-.37.15-.82.62-1.58,1.28-2.26,1.89A17.7,17.7,0,0,0,13.27,73c-.17.23-.45,0-.83,1h4.18A29.17,29.17,0,0,1,17.75,69.58Z"/><path id="_Path_8" data-name="&lt;Path&gt;" class="cls-9" d="M7.6,74.15c.17-.15.34-.17.51-.32a17.46,17.46,0,0,1,1.51-3.64,8.51,8.51,0,0,1,.73-1.13l.1-.1A13.09,13.09,0,0,1,11.25,65a.58.58,0,0,0,.05-.36c-.1,0-.1,0-.24.06-.54.41-1,.82-1.48,1.22a11.67,11.67,0,0,0-1.27,1.33,3.62,3.62,0,0,0-.73.9,12.34,12.34,0,0,0-2,5.81H7.48S7.55,74.19,7.6,74.15Z"/><path id="_Path_9" data-name="&lt;Path&gt;" class="cls-6" d="M10.44,71.15a1.86,1.86,0,0,1-.63,1.43c-.6.46-1.17.66-1.7,1.11C8.06,73.88,8,73,8,74h3.72c.06,0,.12.17.16.13a1.6,1.6,0,0,0,.63-1.3c.12-6.09,1.48-6.35.87-6.4S11,68.34,10.44,68.94A18.6,18.6,0,0,0,10.44,71.15Z"/><path id="_Path_10" data-name="&lt;Path&gt;" class="cls-9" d="M9.62,70.25A18,18,0,0,0,8.11,74c.53-.46,1.1-.91,1.7-1.37a1.86,1.86,0,0,0,.63-1.43,18.05,18.05,0,0,1,0-2.17l-.1.12A9.82,9.82,0,0,0,9.62,70.25Z"/><path id="_Path_11" data-name="&lt;Path&gt;" class="cls-6" d="M9.62,70.25A18,18,0,0,0,8.11,74c.53-.46,1.1-.91,1.7-1.37a1.86,1.86,0,0,0,.63-1.43,18.05,18.05,0,0,1,0-2.17l-.1.12A9.82,9.82,0,0,0,9.62,70.25Z"/><path id="_Path_12" data-name="&lt;Path&gt;" class="cls-5" d="M25.15,72a1.43,1.43,0,0,1,2,.73c.13.32.27.71.4,1,.41-.22.83-.4,1.25-.61a1.63,1.63,0,0,0,.95-1.88,61.82,61.82,0,0,1-2.31-7.18c-.16-.39-.5-.44-1.08-.19a66,66,0,0,0-6.63,3.84A2.83,2.83,0,0,0,18.55,69a11.77,11.77,0,0,0-1,5H21C22.34,73,23.73,72.75,25.15,72Z"/><path id="_Path_13" data-name="&lt;Path&gt;" class="cls-10" d="M28.6,63.57c.59,1.7,1.52,4.06,2.75,7,.39.67,1,.84,1.93.51a111.69,111.69,0,0,1,11.07-4.36c.83-.36,1-.84.58-1.5a23.45,23.45,0,0,0-6.4-5.53,2.56,2.56,0,0,0-1.76-.09,74.72,74.72,0,0,0-7.42,2.92C28.76,62.81,28.52,63.15,28.6,63.57Z"/><path id="_Path_14" data-name="&lt;Path&gt;" class="cls-11" d="M27.81,74c-.09-.71-.19-.44-.28-.66-.42.22-.83-.05-1.24.66Z"/><path id="_Path_15" data-name="&lt;Path&gt;" class="cls-5" d="M25.15,72c-1.42.72-2.82,1-4.17,2H26.3c.41-1,.82-.18,1.24-.4l-.4-1A1.39,1.39,0,0,0,25.15,72Z"/><path id="_Path_16" data-name="&lt;Path&gt;" class="cls-11" d="M25.15,72c-1.42.72-2.82,1-4.17,2H26.3c.41-1,.82-.18,1.24-.4l-.4-1A1.39,1.39,0,0,0,25.15,72Z"/><path id="_Path_17" data-name="&lt;Path&gt;" class="cls-11" d="M35.55,74.22c-.21-.68,0-1.08.74-1.48a92.5,92.5,0,0,1,9.25-3.58c.78-.19,1.39-.22,1.88.36A51.37,51.37,0,0,0,50.25,74h1.53c-1.23-3-2.5-4.12-3.79-6a2.36,2.36,0,0,0-2.61-.68,128.1,128.1,0,0,0-12.84,4.87c-.9.51-1.26.83-1.08,1.83h4.1S35.56,74.23,35.55,74.22Z"/><path id="_Path_18" data-name="&lt;Path&gt;" class="cls-12" d="M45.54,69.22a93.17,93.17,0,0,0-9.25,3.65c-.7.4-.95.67-.74,1.35,0,0,0-.22,0-.22H50.25a50.45,50.45,0,0,1-2.83-4.46C46.93,69,46.32,69,45.54,69.22Z"/><path id="_Path_19" data-name="&lt;Path&gt;" class="cls-13" d="M55.14,65.49a15.5,15.5,0,0,1,1.49-.68c.28-.11.55-.2.81-.28v0l-.36-.8q-.63-1.37-1.3-2.57c-2.13.39-4.08.79-4.81,1a3.16,3.16,0,0,1-2.83-.79l-.81-.84L47,60.6a.83.83,0,0,0-.48,1C47.22,63.2,48,65,48.91,66.9l.37.8a1,1,0,0,0,1.24.48c1.55-.7,3.12-1.35,4.68-1.92l-.07-.07C54.73,65.77,55.07,65.53,55.14,65.49Z"/><path id="_Path_20" data-name="&lt;Path&gt;" class="cls-13" d="M42.79,57l-.63,0a37.15,37.15,0,0,0-5.7.66c-.83.17-.91.19-2.34.54l-.48.13a8.47,8.47,0,0,1,3.62-.18A5,5,0,0,0,39,58.17c.82-.22,1.63-.4,2.41-.56s1.56-.28,2.26-.36L43.37,57Z"/><path id="_Path_21" data-name="&lt;Path&gt;" class="cls-14" d="M55.76,61.12l1.94-.35a28.24,28.24,0,0,0-3.06-1.54Q55.21,60.12,55.76,61.12Z"/><path id="_Path_22" data-name="&lt;Path&gt;" class="cls-15" d="M49.78,57.68l-1-.22a2.88,2.88,0,0,1,.47,0c1.93.38,2.77.54,3.65.77l.08,0a1.12,1.12,0,0,1,1.21.38l0,0,.5.16a42,42,0,0,1,4.4,1.73c1.49-.25,2.77-.43,3.41-.47.4,0,.89-.27-.27-1.24-3.85-2.91-11.67-6.64-15-6.23-1.32.08-6.66,1.08-7.78,1.37-.16,0-.9.3,0,.77A22,22,0,0,1,43.37,57h.52a6.55,6.55,0,0,1,.93.07l-.1,0-1.07.1a33,33,0,0,1,3.65,3.21C49,59.7,50.76,59,52.47,58.42A27.14,27.14,0,0,0,49.78,57.68Z"/><path id="_Path_23" data-name="&lt;Path&gt;" class="cls-13" d="M54.22,58.62A1.12,1.12,0,0,0,53,58.24l-.08,0c.4.1.8.22,1.31.38Z"/><path id="_Path_24" data-name="&lt;Path&gt;" class="cls-16" d="M54.22,58.62A1.12,1.12,0,0,0,53,58.24l-.08,0c.4.1.8.22,1.31.38Z"/><path id="_Path_25" data-name="&lt;Path&gt;" class="cls-13" d="M50.95,62.1c.73-.19,2.69-.59,4.81-1q-.55-1-1.13-1.88-1.07-.46-2.16-.82C50.76,59,49,59.7,47.3,60.47l.81.84A3.16,3.16,0,0,0,50.95,62.1Z"/><path id="_Path_26" data-name="&lt;Path&gt;" class="cls-17" d="M50.95,62.1c.73-.19,2.69-.59,4.81-1q-.55-1-1.13-1.88-1.07-.46-2.16-.82C50.76,59,49,59.7,47.3,60.47l.81.84A3.16,3.16,0,0,0,50.95,62.1Z"/><path id="_Path_27" data-name="&lt;Path&gt;" class="cls-13" d="M44.82,57.12a6.55,6.55,0,0,0-.93-.07h-.52l.28.21,1.07-.1Z"/><path id="_Path_28" data-name="&lt;Path&gt;" class="cls-18" d="M44.82,57.12a6.55,6.55,0,0,0-.93-.07h-.52l.28.21,1.07-.1Z"/><path id="_Path_29" data-name="&lt;Path&gt;" class="cls-9" d="M61.31,69a27.2,27.2,0,0,1,2.12,2.56A11.41,11.41,0,0,1,65.63,71c.18,0,.41-.25-.12-1.13a14.48,14.48,0,0,0-5.68-5.39,2.88,2.88,0,0,0-1.16-.28,7.32,7.32,0,0,0-1.24.28A.81.81,0,0,1,57,65.64q-.88.29-1.77.62A12.16,12.16,0,0,1,57,68.4q1.4-.21,2.59-.28A2.7,2.7,0,0,1,61.31,69Z"/><path id="_Path_30" data-name="&lt;Path&gt;" class="cls-13" d="M57.43,64.52c-.26.08-.52.17-.81.28a15.5,15.5,0,0,0-1.49.68c-.07,0-.41.28,0,.7l.07.07q.89-.32,1.77-.62A.81.81,0,0,0,57.43,64.52Z"/><path id="_Path_31" data-name="&lt;Path&gt;" class="cls-9" d="M57.43,64.52c-.26.08-.52.17-.81.28a15.5,15.5,0,0,0-1.49.68c-.07,0-.41.28,0,.7l.07.07q.89-.32,1.77-.62A.81.81,0,0,0,57.43,64.52Z"/><path id="_Path_32" data-name="&lt;Path&gt;" class="cls-19" d="M72,57.72c.36.66.78.89,1.29.72a23.44,23.44,0,0,1,2.21-1,12.65,12.65,0,0,1,3.06-.84c.18,0,.41-.25-.12-1.13a14.46,14.46,0,0,0-5.67-5.39,2.91,2.91,0,0,0-1.16-.28A10.76,10.76,0,0,0,68.07,51c-.07,0-.41.28,0,.7A18.86,18.86,0,0,1,72,57.72Z"/><path id="_Path_33" data-name="&lt;Path&gt;" class="cls-20" d="M76.58,65.86c-.06,0-.38.23,0,.56a15.4,15.4,0,0,1,3.67,4.86c.34.53.73.72,1.2.58.71-.32,1.39-.6,2.06-.83a13.22,13.22,0,0,1,2.84-.68c.17,0,.38-.2-.12-.91a12.89,12.89,0,0,0-5.28-4.36,3,3,0,0,0-1.08-.23A8.68,8.68,0,0,0,78,65.3C77.52,65.45,77.05,65.64,76.58,65.86Z"/><path id="_Path_34" data-name="&lt;Path&gt;" class="cls-21" d="M85,55.44a9.87,9.87,0,0,1,3.07,2,1.24,1.24,0,0,0,1,.24,13.41,13.41,0,0,1,4.1-.62c.14,0,.32-.08-.09-.37a11.66,11.66,0,0,0-5.31-1.88c-.46,0-2.35.32-2.74.41C85,55.23,84.7,55.3,85,55.44Z"/><path id="_Path_35" data-name="&lt;Path&gt;" class="cls-6" d="M63.42,71.31c-.27.09-.56.32-.85.44a24.5,24.5,0,0,0-2.22,1.09c-.5.18-.92,0-1.29-.68A27.48,27.48,0,0,0,57,68.39c-.62.09-1.27.21-1.95.35-1.07.21-2.17.47-3.3.76-.66.25-.8.39-.44,1,.83,1.14,1.64,2.49,2.42,3.49H65.31A30.76,30.76,0,0,0,63.42,71.31Z"/><path id="_Path_36" data-name="&lt;Path&gt;" class="cls-9" d="M60.36,72.91a23.31,23.31,0,0,1,2.22-1l.85-.31A27.2,27.2,0,0,0,61.31,69a2.7,2.7,0,0,0-1.73-.89q-1.19.07-2.59.28a27.75,27.75,0,0,1,2.09,3.79C59.44,72.85,59.86,73.08,60.36,72.91Z"/><path id="_Path_37" data-name="&lt;Path&gt;" class="cls-6" d="M60.36,72.91a23.31,23.31,0,0,1,2.22-1l.85-.31A27.2,27.2,0,0,0,61.31,69a2.7,2.7,0,0,0-1.73-.89q-1.19.07-2.59.28a27.75,27.75,0,0,1,2.09,3.79C59.44,72.85,59.86,73.08,60.36,72.91Z"/><path id="_Path_38" data-name="&lt;Path&gt;" class="cls-5" d="M54.24,58.64c-.51-.16-.92-.27-1.31-.38-.88-.23-1.72-.39-3.65-.77a2.88,2.88,0,0,0-.47,0l1,.22a27.14,27.14,0,0,1,2.69.74q1.09.36,2.16.82a28.24,28.24,0,0,1,3.06,1.54,29.28,29.28,0,0,1,2.63,1.71,5.78,5.78,0,0,0,2.06,1,7,7,0,0,1,3.53,1.16l-.62-.47a35.67,35.67,0,0,0-5-3.12l-1.13-.56a42,42,0,0,0-4.4-1.73Z"/><path id="_Path_39" data-name="&lt;Path&gt;" class="cls-6" d="M70.31,64.83a6.89,6.89,0,0,0-3.82-1.22c-.25,0-.54.19.31,1.14A33.49,33.49,0,0,1,73.21,74c0,.07.06,0,.1,0h4.28A93.4,93.4,0,0,0,70.31,64.83Z"/></g></g></g></svg>