<svg xmlns="http://www.w3.org/2000/svg" xmlns:xlink="http://www.w3.org/1999/xlink" viewBox="0 0 162.3 91.44"><defs><style>.cls-1{isolation:isolate;}.cls-2{font-size:12px;fill:#6e6f71;font-family:EurostileLTStd-Ex2, Eurostile LT Std;letter-spacing:0em;}.cls-3{fill:#afcc37;}.cls-4{fill:none;}.cls-5,.cls-8{fill:#4dc0af;}.cls-12,.cls-6{fill:#f9bb19;}.cls-11,.cls-13,.cls-14,.cls-15,.cls-16,.cls-17,.cls-18,.cls-6,.cls-8,.cls-9{mix-blend-mode:multiply;}.cls-7,.cls-9{fill:#f38220;}.cls-10{fill:url(#New_Gradient_Swatch_3);}.cls-11,.cls-21{fill:#d7df29;}.cls-13{fill:#f15b2c;}.cls-14{fill:url(#New_Gradient_Swatch_2);}.cls-15{fill:url(#New_Gradient_Swatch_2-2);}.cls-16{fill:url(#New_Gradient_Swatch_2-3);}.cls-17{fill:url(#New_Gradient_Swatch_2-4);}.cls-18{fill:url(#New_Gradient_Swatch_2-5);}.cls-19{fill:url(#New_Gradient_Swatch_6);}.cls-20{fill:url(#New_Gradient_Swatch_5);}</style><linearGradient id="New_Gradient_Swatch_3" x1="68.99" y1="139.28" x2="81.55" y2="120.81" gradientUnits="userSpaceOnUse"><stop offset="0" stop-color="#f38220"/><stop offset="1" stop-color="#f9bb19"/></linearGradient><linearGradient id="New_Gradient_Swatch_2" x1="80.85" y1="119.5" x2="124.8" y2="119.5" gradientUnits="userSpaceOnUse"><stop offset="0.01" stop-color="#4dc0af"/><stop offset="1" stop-color="#fff"/></linearGradient><linearGradient id="New_Gradient_Swatch_2-2" x1="80.85" y1="112.84" x2="124.8" y2="112.84" xlink:href="#New_Gradient_Swatch_2"/><linearGradient id="New_Gradient_Swatch_2-3" x1="80.85" y1="116.28" x2="124.8" y2="116.28" xlink:href="#New_Gradient_Swatch_2"/><linearGradient id="New_Gradient_Swatch_2-4" x1="80.85" y1="119.71" x2="124.8" y2="119.71" xlink:href="#New_Gradient_Swatch_2"/><linearGradient id="New_Gradient_Swatch_2-5" x1="80.85" y1="113.96" x2="124.8" y2="113.96" xlink:href="#New_Gradient_Swatch_2"/><linearGradient id="New_Gradient_Swatch_6" x1="136.93" y1="111.09" x2="151.08" y2="104.2" gradientUnits="userSpaceOnUse"><stop offset="0" stop-color="#f9bb19"/><stop offset="1" stop-color="#fff"/></linearGradient><linearGradient id="New_Gradient_Swatch_5" x1="149.33" y1="134.52" x2="167.9" y2="134.52" gradientUnits="userSpaceOnUse"><stop offset="0" stop-color="#f38220"/><stop offset="1" stop-color="#fff"/></linearGradient></defs><title>YSNLogo_200x200-01</title><g class="cls-1"><g id="Layer_1" data-name="Layer 1"><text class="cls-2" transform="translate(92.6 9.96)">your <tspan x="0" y="11.44">success </tspan><tspan x="0" y="22.88">now</tspan></text><g id="_Group_" data-name="&lt;Group&gt;"><g id="_Group_2" data-name="&lt;Group&gt;"><path id="_Compound_Path_" data-name="&lt;Compound Path&gt;" class="cls-3" d="M58,77.19a5.39,5.39,0,0,0,2.38,4.38,9.35,9.35,0,0,0,4.94,1.25,19.43,19.43,0,0,0,2.28-.15,10,10,0,0,0,2.41-.6,4.51,4.51,0,0,0,1.85-1.28,3.09,3.09,0,0,0,.65-2.22,3.14,3.14,0,0,0-1-2.25,6.94,6.94,0,0,0-2.41-1.41A23.07,23.07,0,0,0,65.8,74q-1.88-.38-3.82-.81a36.27,36.27,0,0,1-3.85-1.06,12.3,12.3,0,0,1-3.32-1.69,7.76,7.76,0,0,1-2.35-2.72,8.65,8.65,0,0,1-.88-4.1,7.33,7.33,0,0,1,1.28-4.41,9.82,9.82,0,0,1,3.25-2.88,14.18,14.18,0,0,1,4.38-1.53,25.72,25.72,0,0,1,4.6-.44,21,21,0,0,1,4.79.53A12.93,12.93,0,0,1,74,56.6a10.09,10.09,0,0,1,3.07,3.1,10.75,10.75,0,0,1,1.53,4.6H71.18a4.44,4.44,0,0,0-2.35-3.44A9.73,9.73,0,0,0,64.61,60a15.16,15.16,0,0,0-1.78.12,8.23,8.23,0,0,0-1.94.47,4.12,4.12,0,0,0-1.53,1,2.4,2.4,0,0,0-.63,1.72,2.73,2.73,0,0,0,.91,2.13A7.24,7.24,0,0,0,62,66.77a23,23,0,0,0,3.36.91q1.88.38,3.89.82t3.83,1.07a12.37,12.37,0,0,1,3.36,1.69,8.23,8.23,0,0,1,2.39,2.69,8.08,8.08,0,0,1,.91,4,8.68,8.68,0,0,1-1.32,4.88A10.41,10.41,0,0,1,75,86.08a15.64,15.64,0,0,1-4.67,1.81,23.78,23.78,0,0,1-5.08.56,22.25,22.25,0,0,1-5.68-.69,13.24,13.24,0,0,1-4.51-2.1,10.13,10.13,0,0,1-3-3.5,11.15,11.15,0,0,1-1.16-5Z" transform="translate(-19.59 -54.05)"/><g id="_Group_3" data-name="&lt;Group&gt;"><path id="_Path_" data-name="&lt;Path&gt;" class="cls-3" d="M101.1,57.16Q98,54.41,92.71,54.41a11.35,11.35,0,0,0-5.82,1.53,12,12,0,0,0-4.25,4.22L82.51,60V55.29H75.75v1.87a11,11,0,0,1,1.86,2.21,11.37,11.37,0,0,1,1.62,4.86l.08.68H75.75v5.17a11.78,11.78,0,0,1,1.07.67,8.9,8.9,0,0,1,2.56,2.89,8.74,8.74,0,0,1,1,4.3,9.35,9.35,0,0,1-1.42,5.22,11,11,0,0,1-3.2,3.18v1.3h7.13V68.55a9.72,9.72,0,0,1,.56-3.32A8.5,8.5,0,0,1,85,62.51a7.08,7.08,0,0,1,2.44-1.82A7.76,7.76,0,0,1,90.71,60a5.92,5.92,0,0,1,4.69,1.72Q96.9,63.48,97,67.3V87.64h7.13V65.42Q104.16,59.91,101.1,57.16Z" transform="translate(-19.59 -54.05)"/><path id="_Path_2" data-name="&lt;Path&gt;" class="cls-3" d="M51,63.61a8,8,0,0,1,1.4-4.77,10.49,10.49,0,0,1,3.45-3.05c.37-.21.75-.39,1.14-.56H50.68l-8.2,24.15h-.13L33.91,55.22H26.09L38.36,87.45,37.55,90a13.89,13.89,0,0,1-.69,1.88,5.51,5.51,0,0,1-.91,1.41,3.41,3.41,0,0,1-1.35.91,5.84,5.84,0,0,1-2.07.31,9.07,9.07,0,0,1-1.69-.15c-.54-.11-1.1-.2-1.69-.28v6a32.57,32.57,0,0,0,4.94.37,10.28,10.28,0,0,0,4.63-.91,8.84,8.84,0,0,0,3-2.44,14.88,14.88,0,0,0,2-3.54q.84-2,1.71-4.19l7.38-19.91A8.67,8.67,0,0,1,51.93,68,9.36,9.36,0,0,1,51,63.61Z" transform="translate(-19.59 -54.05)"/></g></g></g><g id="_Group_4" data-name="&lt;Group&gt;"><path id="_Path_3" data-name="&lt;Path&gt;" class="cls-4" d="M23.3,145.43a.28.28,0,0,1-.22.06H24c.09-.93.18-.62.28-1C23.92,144.8,23.61,145.15,23.3,145.43Z" transform="translate(-19.59 -54.05)"/><path id="_Path_4" data-name="&lt;Path&gt;" class="cls-5" d="M47,121.06c1.49-1.85,2.28-4.82,4.31-6.15,0,0-3.28,2.23-6.18,4.48a67.62,67.62,0,0,0-9.17,9s7.46-4.54,8.94-5.54Z" transform="translate(-19.59 -54.05)"/><path id="_Path_5" data-name="&lt;Path&gt;" class="cls-6" d="M59.6,120.61a71.53,71.53,0,0,0-8.6,5.05,19.1,19.1,0,0,0-4.85,4.93,2.19,2.19,0,0,0-.34.7c0,.36.44.09.67,0a110,110,0,0,1,11-6.39c.94-.54,1.41-1.09,1.47-1.7C58.89,121.74,59.1,120.88,59.6,120.61Z" transform="translate(-19.59 -54.05)"/><path id="_Path_6" data-name="&lt;Path&gt;" class="cls-7" d="M59.91,118.44c4.09-1.87,12.57-4.95,12.66-5s.89-.48-.12-.78c-2.11-.47-7.51.73-9.27,1.41-2.25.87-4.9,1.9-5.26,2.07s-.19.87.15,2.18C58.3,118.79,58.92,118.83,59.91,118.44Z" transform="translate(-19.59 -54.05)"/><path id="_Path_7" data-name="&lt;Path&gt;" class="cls-8" d="M41.9,136.81c.2-.57.2-.38.15-.83-.29-.1-.29,0-.67.25-1.51,1.14-2.9,2.33-4.13,3.46A32.34,32.34,0,0,0,33.7,143c-.32.42-.82,1-1.52,2h7.66A49.7,49.7,0,0,1,41.9,136.81Z" transform="translate(-19.59 -54.05)"/><path id="_Path_8" data-name="&lt;Path&gt;" class="cls-9" d="M23.3,145.18c.3-.28.62-.36.94-.64A32.16,32.16,0,0,1,27,137.86a16,16,0,0,1,1.33-2.07l.18-.19A24,24,0,0,1,30,128.42a1.06,1.06,0,0,0,.1-.66c-.19-.06-.19-.06-.44.1-1,.75-1.9,1.5-2.72,2.24a21.37,21.37,0,0,0-2.33,2.43,7.93,7.93,0,0,0-1.33,1.74c-1.86,3.42-3.11,5.74-3.7,10.74h3.5C23.16,145,23.23,145.25,23.3,145.18Z" transform="translate(-19.59 -54.05)"/><path id="_Path_9" data-name="&lt;Path&gt;" class="cls-6" d="M28.51,139.6a3.4,3.4,0,0,1-1.15,2.62c-1.11.84-2.15,1.29-3.12,2.13-.1.34-.19-.35-.28.65h6.81c.11,0,.21.22.3.15a3,3,0,0,0,1.15-2.43c.23-11.16,2.7-11.65,1.59-11.75s-4.34,3.48-5.3,4.6A33.88,33.88,0,0,0,28.51,139.6Z" transform="translate(-19.59 -54.05)"/><path id="_Path_10" data-name="&lt;Path&gt;" class="cls-9" d="M27,138a33,33,0,0,0-2.76,6.78c1-.84,2-1.67,3.12-2.51a3.4,3.4,0,0,0,1.15-2.62,33.07,33.07,0,0,1,0-4l-.18.22A18,18,0,0,0,27,138Z" transform="translate(-19.59 -54.05)"/><path id="_Path_11" data-name="&lt;Path&gt;" class="cls-6" d="M27,138a33,33,0,0,0-2.76,6.78c1-.84,2-1.67,3.12-2.51a3.4,3.4,0,0,0,1.15-2.62,33.07,33.07,0,0,1,0-4l-.18.22A18,18,0,0,0,27,138Z" transform="translate(-19.59 -54.05)"/><path id="_Path_12" data-name="&lt;Path&gt;" class="cls-5" d="M55.47,141.3a2.61,2.61,0,0,1,3.63,1.29c.24.58.49,1.28.74,1.88.76-.4,1.52-.74,2.28-1.13,1.51-.93,2.08-2,1.73-3.44a113.27,113.27,0,0,1-4.24-13.15c-.28-.71-.91-.81-2-.35a120.89,120.89,0,0,0-12.14,7,5.4,5.4,0,0,0-2.12,2.36A24.11,24.11,0,0,0,41.53,145h6.29C50.31,144,52.86,142.63,55.47,141.3Z" transform="translate(-19.59 -54.05)"/><path id="_Path_13" data-name="&lt;Path&gt;" class="cls-10" d="M61.77,125.72c1.09,3.11,2.79,7.43,5,12.77.71,1.23,1.86,1.54,3.53.93a204.59,204.59,0,0,1,20.27-8c1.52-.65,1.87-1.55,1.06-2.74A43,43,0,0,0,80,118.56a4.7,4.7,0,0,0-3.23-.17,136.88,136.88,0,0,0-13.59,5.36C62.07,124.32,61.63,124.95,61.77,125.72Z" transform="translate(-19.59 -54.05)"/><path id="_Path_14" data-name="&lt;Path&gt;" class="cls-11" d="M60.34,145c-.17-1-.34-.81-.51-1.21-.76.4-1.52.21-2.27,1.21Z" transform="translate(-19.59 -54.05)"/><path id="_Path_15" data-name="&lt;Path&gt;" class="cls-5" d="M55.47,141.3c-2.61,1.32-5.16,2.7-7.64,3.7h9.73c.75-1,1.51-.42,2.27-.82l-.74-1.78C58.32,141,57.14,140.63,55.47,141.3Z" transform="translate(-19.59 -54.05)"/><path id="_Path_16" data-name="&lt;Path&gt;" class="cls-11" d="M55.47,141.3c-2.61,1.32-5.16,2.7-7.64,3.7h9.73c.75-1,1.51-.42,2.27-.82l-.74-1.78C58.32,141,57.14,140.63,55.47,141.3Z" transform="translate(-19.59 -54.05)"/><path id="_Path_17" data-name="&lt;Path&gt;" class="cls-11" d="M74.52,145.31c-.38-1.25.06-2,1.35-2.76A169.68,169.68,0,0,1,92.81,136c1.42-.34,2.55-.33,3.44.73,1.77,2.59,3.51,6.3,5.19,8.3h2.8c-2.25-5-4.58-7.64-6.94-11.1-1.23-1.47-2.79-1.76-4.77-1.3a235.34,235.34,0,0,0-23.52,9c-1.66.94-2.3,2.41-2,3.41h7.52S74.53,145.33,74.52,145.31Z" transform="translate(-19.59 -54.05)"/><path id="_Path_18" data-name="&lt;Path&gt;" class="cls-12" d="M92.81,136.06a170.67,170.67,0,0,0-16.95,6.68c-1.29.73-1.73,1.31-1.35,2.56,0,0,0-.31,0-.31h26.89c-1.68-2-3.42-5.66-5.19-8.25C95.36,135.69,94.24,135.72,92.81,136.06Z" transform="translate(-19.59 -54.05)"/><path id="_Path_19" data-name="&lt;Path&gt;" class="cls-13" d="M110.4,129.23a28.4,28.4,0,0,1,2.72-1.25c.51-.2,1-.37,1.48-.52v-.05c-.21-.49-.43-1-.66-1.46q-1.16-2.5-2.39-4.72c-3.89.72-7.47,1.44-8.82,1.8a5.79,5.79,0,0,1-5.19-1.44c-.49-.53-1-1-1.48-1.54l-.53.24a1.51,1.51,0,0,0-.88,1.91c1.25,2.86,2.72,6.1,4.36,9.64l.67,1.46a1.74,1.74,0,0,0,2.27.88c2.83-1.29,5.72-2.48,8.58-3.52l-.13-.13C109.65,129.74,110.27,129.31,110.4,129.23Z" transform="translate(-19.59 -54.05)"/><path id="_Path_20" data-name="&lt;Path&gt;" class="cls-13" d="M87.77,113.77l-1.16,0A68.05,68.05,0,0,0,76.17,115c-1.51.3-1.67.34-4.29,1l-.89.24a15.51,15.51,0,0,1,6.63-.34,9.14,9.14,0,0,0,3.17-.1c1.51-.4,3-.73,4.42-1s2.87-.51,4.14-.66l-.52-.39Z" transform="translate(-19.59 -54.05)"/><path id="_Path_21" data-name="&lt;Path&gt;" class="cls-14" d="M111.53,121.23l3.55-.64a51.74,51.74,0,0,0-5.61-2.81Q110.52,119.4,111.53,121.23Z" transform="translate(-19.59 -54.05)"/><path id="_Path_22" data-name="&lt;Path&gt;" class="cls-15" d="M100.58,114.92c-1.26-.28-1.47-.33-1.78-.41a5.28,5.28,0,0,1,.86.07c3.54.69,5.08,1,6.69,1.41l.14,0a2.05,2.05,0,0,1,2.23.69l0,0,.92.29a76.85,76.85,0,0,1,8.06,3.17c2.73-.45,5.07-.79,6.25-.86.73-.09,1.64-.5-.5-2.27-7-5.33-21.37-12.16-27.55-11.41-2.41.15-12.2,2-14.25,2.51-.29.08-1.65.56-.05,1.4a40.29,40.29,0,0,1,7.21,4.25l1,0a12,12,0,0,1,1.7.12l-.19.07c-.62,0-1.27.1-2,.17A60.37,60.37,0,0,1,96,120c3.13-1.41,6.33-2.68,9.47-3.76A49.72,49.72,0,0,0,100.58,114.92Z" transform="translate(-19.59 -54.05)"/><path id="_Path_23" data-name="&lt;Path&gt;" class="cls-13" d="M108.71,116.64a2.05,2.05,0,0,0-2.23-.69l-.14,0c.72.19,1.46.41,2.4.69Z" transform="translate(-19.59 -54.05)"/><path id="_Path_24" data-name="&lt;Path&gt;" class="cls-16" d="M108.71,116.64a2.05,2.05,0,0,0-2.23-.69l-.14,0c.72.19,1.46.41,2.4.69Z" transform="translate(-19.59 -54.05)"/><path id="_Path_25" data-name="&lt;Path&gt;" class="cls-13" d="M102.71,123c1.34-.35,4.92-1.08,8.82-1.8q-1-1.83-2.06-3.45-2-.83-4-1.5c-3.14,1.08-6.33,2.35-9.47,3.76.5.5,1,1,1.48,1.54A5.79,5.79,0,0,0,102.71,123Z" transform="translate(-19.59 -54.05)"/><path id="_Path_26" data-name="&lt;Path&gt;" class="cls-17" d="M102.71,123c1.34-.35,4.92-1.08,8.82-1.8q-1-1.83-2.06-3.45-2-.83-4-1.5c-3.14,1.08-6.33,2.35-9.47,3.76.5.5,1,1,1.48,1.54A5.79,5.79,0,0,0,102.71,123Z" transform="translate(-19.59 -54.05)"/><path id="_Path_27" data-name="&lt;Path&gt;" class="cls-13" d="M91.49,113.9a12,12,0,0,0-1.7-.12l-1,0,.52.39c.68-.08,1.33-.14,2-.17Z" transform="translate(-19.59 -54.05)"/><path id="_Path_28" data-name="&lt;Path&gt;" class="cls-18" d="M91.49,113.9a12,12,0,0,0-1.7-.12l-1,0,.52.39c.68-.08,1.33-.14,2-.17Z" transform="translate(-19.59 -54.05)"/><path id="_Path_29" data-name="&lt;Path&gt;" class="cls-9" d="M121.7,135.68a49.82,49.82,0,0,1,3.88,4.7,20.91,20.91,0,0,1,4-1c.34-.08.75-.45-.22-2.07-3.2-4.85-6.73-8.19-10.4-9.87a5.28,5.28,0,0,0-2.13-.52,13.41,13.41,0,0,0-2.27.51,1.49,1.49,0,0,1-.85,2q-1.61.53-3.23,1.13a22.27,22.27,0,0,1,3.26,3.93q2.56-.38,4.75-.52A5,5,0,0,1,121.7,135.68Z" transform="translate(-19.59 -54.05)"/><path id="_Path_30" data-name="&lt;Path&gt;" class="cls-13" d="M114.59,127.46c-.47.15-1,.31-1.48.52a28.4,28.4,0,0,0-2.72,1.25c-.13.08-.75.51,0,1.28l.13.13q1.62-.59,3.23-1.13A1.49,1.49,0,0,0,114.59,127.46Z" transform="translate(-19.59 -54.05)"/><path id="_Path_31" data-name="&lt;Path&gt;" class="cls-9" d="M114.59,127.46c-.47.15-1,.31-1.48.52a28.4,28.4,0,0,0-2.72,1.25c-.13.08-.75.51,0,1.28l.13.13q1.62-.59,3.23-1.13A1.49,1.49,0,0,0,114.59,127.46Z" transform="translate(-19.59 -54.05)"/><path id="_Path_32" data-name="&lt;Path&gt;" class="cls-19" d="M141.29,115c.67,1.21,1.44,1.64,2.36,1.31a42.93,42.93,0,0,1,4.06-1.87,23.17,23.17,0,0,1,5.6-1.53c.33-.08.74-.45-.23-2.07-3.2-4.85-6.73-8.19-10.4-9.88a5.34,5.34,0,0,0-2.12-.52,19.72,19.72,0,0,0-6.48,2.29c-.13.08-.75.51,0,1.28C136.45,106.15,138.9,109.86,141.29,115Z" transform="translate(-19.59 -54.05)"/><path id="_Path_33" data-name="&lt;Path&gt;" class="cls-20" d="M149.67,129.9c-.12.06-.69.41,0,1,2.21,1.73,4.5,4.74,6.72,8.91.62,1,1.34,1.32,2.19,1.06,1.29-.59,2.55-1.1,3.78-1.52a24.21,24.21,0,0,1,5.21-1.24c.3-.06.69-.36-.21-1.67-3-3.93-6.26-6.63-9.67-8a5.42,5.42,0,0,0-2-.42,15.9,15.9,0,0,0-3.49.83C151.38,129.16,150.54,129.51,149.67,129.9Z" transform="translate(-19.59 -54.05)"/><path id="_Path_34" data-name="&lt;Path&gt;" class="cls-21" d="M165.11,110.83a18.09,18.09,0,0,1,5.62,3.65,2.28,2.28,0,0,0,1.83.44,24.56,24.56,0,0,1,7.5-1.13c.25,0,.58-.15-.17-.68-2.49-1.61-6.64-3.41-9.73-3.45-.85,0-4.31.59-5,.76C165,110.43,164.55,110.57,165.11,110.83Z" transform="translate(-19.59 -54.05)"/><path id="_Path_35" data-name="&lt;Path&gt;" class="cls-6" d="M125.57,140c-.5.17-1,.55-1.55.76a44.48,44.48,0,0,0-4.06,2c-.92.32-1.69-.06-2.36-1.26a50.42,50.42,0,0,0-3.83-6.91c-1.14.17-2.33.39-3.57.63-2,.39-4,.86-6,1.4-1.21.45-1.47.8-.8,1.94,1.52,2.09,3,4.49,4.43,6.49H129C128,144,126.8,141.68,125.57,140Z" transform="translate(-19.59 -54.05)"/><path id="_Path_36" data-name="&lt;Path&gt;" class="cls-9" d="M120,142.82a42.7,42.7,0,0,1,4.06-1.88q.8-.32,1.55-.57a49.82,49.82,0,0,0-3.88-4.7,5,5,0,0,0-3.17-1.63q-2.19.14-4.75.52a50.83,50.83,0,0,1,3.83,6.94C118.27,142.71,119,143.14,120,142.82Z" transform="translate(-19.59 -54.05)"/><path id="_Path_37" data-name="&lt;Path&gt;" class="cls-6" d="M120,142.82a42.7,42.7,0,0,1,4.06-1.88q.8-.32,1.55-.57a49.82,49.82,0,0,0-3.88-4.7,5,5,0,0,0-3.17-1.63q-2.19.14-4.75.52a50.83,50.83,0,0,1,3.83,6.94C118.27,142.71,119,143.14,120,142.82Z" transform="translate(-19.59 -54.05)"/><path id="_Path_38" data-name="&lt;Path&gt;" class="cls-5" d="M108.75,116.69c-.94-.29-1.68-.5-2.4-.69-1.6-.42-3.15-.72-6.69-1.41a5.28,5.28,0,0,0-.86-.07c.31.08.52.13,1.78.41a49.72,49.72,0,0,1,4.93,1.36q2,.66,4,1.5a51.74,51.74,0,0,1,5.61,2.81,53.63,53.63,0,0,1,4.81,3.14,10.6,10.6,0,0,0,3.78,1.88,12.84,12.84,0,0,1,6.47,2.12l-1.14-.86c-3.23-2.35-3.57-2.55-9.2-5.71l-2.07-1a76.85,76.85,0,0,0-8.06-3.17Z" transform="translate(-19.59 -54.05)"/><path id="_Path_39" data-name="&lt;Path&gt;" class="cls-6" d="M138.18,128.11c-1.45-1.28-3.8-1.93-7-2.27-.46,0-1,.32.57,2.07a61.77,61.77,0,0,1,11.75,17c.06.13.12.05.18.05h7.84A207.69,207.69,0,0,0,138.18,128.11Z" transform="translate(-19.59 -54.05)"/></g></g></g></svg>